# xmcd
#
# Track frame offsets: 
#        150
#        11308
#        23077
#        34586
#        45621
#        57870
#        67367
#        78441
#        90148
#        103857
#        116927
#        127544
#
# Disc length: 1830 seconds
#
# Revision: 1
# Processed by: cddbd v1.5.2PL0 Copyright (c) Steve Scherf et al.
# Submitted via: ExactAudioCopyFreeDBPlugin 1.0
#
DISCID=8d07240c
DTITLE=Melba Montgomery - I Can't Get Used To Being Lonely
DYEAR=1965
DGENRE=Country
TTITLE0=I Can't Get Used To Being Lonely
TTITLE1=I'll Wait Till Seven
TTITLE2=Constantly
TTITLE3=From Now Till Then
TTITLE4=Better Than Now
TTITLE5=You Introduced Me To The Blues
TTITLE6=I Saw It (For Myself)
TTITLE7=White Lightning
TTITLE8=Yearning
TTITLE9=Your Kind Of Loving Won't Do
TTITLE10=Anothers' Love Slipped In
TTITLE11=The Big Joke
EXTD=
EXTT0=
EXTT1=
EXTT2=
EXTT3=
EXTT4=
EXTT5=
EXTT6=
EXTT7=
EXTT8=
EXTT9=
EXTT10=
EXTT11=
PLAYORDER=
